<svg xmlns="http://www.w3.org/2000/svg" viewBox="0 0 1440 320"><path fill="#273036" fill-opacity="1" d="M0,96L24,122.7C48,149,96,203,144,197.3C192,192,240,128,288,101.3C336,75,384,85,432,85.3C480,85,528,75,576,106.7C624,139,672,213,720,213.3C768,213,816,139,864,133.3C912,128,960,192,1008,197.3C1056,203,1104,149,1152,154.7C1200,160,1248,224,1296,256C1344,288,1392,288,1416,288L1440,288L1440,320L1416,320C1392,320,1344,320,1296,320C1248,320,1200,320,1152,320C1104,320,1056,320,1008,320C960,320,912,320,864,320C816,320,768,320,720,320C672,320,624,320,576,320C528,320,480,320,432,320C384,320,336,320,288,320C240,320,192,320,144,320C96,320,48,320,24,320L0,320Z"></path></svg>
